# xmcd
#
# Track frame offsets:
# 150
# 14118
# 31616
# 43717
# 58354
# 70040
# 83495
# 94840
# 108174
# 119352
# 133765
#
# Disc length: 2047 seconds
#
#
# Revision: 0
# Processed by: cddbd v1.5.1PL0 Copyright (c) Steve Scherf et al.
# Submitted via: FreeRIP 2.93 
#
DISCID=8f07fd0b
DTITLE=Jackson Alan - New Traditional
DYEAR=1992
DGENRE=Country
TTITLE0=Ain't your memory got no pride at all
TTITLE1=Just forget it, son
TTITLE2=Merle and George
TTITLE3=Don't touch me
TTITLE4=Break out the good stuff
TTITLE5=The steal of the night
TTITLE6=When the cat goes out
TTITLE7=I coultdn't care more
TTITLE8=They call me a playboy
TTITLE9=W. Lee O'Daniel and the Light Crust Dough Boys
TTITLE10=You're not drinkin' enough
EXTD=
EXTT0=
EXTT1=
EXTT2=
EXTT3=
EXTT4=
EXTT5=
EXTT6=
EXTT7=
EXTT8=
EXTT9=
EXTT10=
PLAYORDER=
